<svg xmlns="http://www.w3.org/2000/svg" width="118" height="72" viewBox="0 0 236.6 139.9"><path d="m166.4 51.8c-10.4 0-18.8 8.4-18.8 18.8 0 10.4 8.4 18.8 18.8 18.8 10.4 0 18.8-8.4 18.8-18.8 0-10.4-8.4-18.8-18.8-18.8m30.1 18.8c0 16.6-13.5 30.1-30.1 30.1 -16.6 0-30.1-13.5-30.1-30.1 0-16.6 13.5-30.1 30.1-30.1 16.6 0 30.1 13.5 30.1 30.1M29.8 54.6 29.8 54.6 29.8 54.6 29.8 54.6 29.8 54.6"></path><path d="m29.8 54.6l-1.9 0c-2.5 0-4.8 0.2-6.8 0.5 -2 0.3-4.3 1.1-6.8 2.2l0 41.4 -14.2 0 0-55 13.3 0 0 5.6c3-2.3 5.9-4 8.6-5.1 2.7-1.1 5.5-1.7 8.2-1.7 0.5 0 1.1 0 2 0.1l0 12.2c-0.9-0.1-1.7-0.2-2.3-0.2"></path><path d="m66.5 72.3c-3.1 0.2-5.7 0.4-7.8 0.8 -2.1 0.4-3.8 1-5 1.7 -1.3 0.7-2.2 1.6-2.7 2.7 -0.5 1.1-0.8 2.5-0.8 4.1 0 2.8 0.6 4.8 1.8 6.1 1.2 1.2 2.8 1.9 4.7 1.9 1.2 0 2.6-0.2 4.2-0.6 1.6-0.4 2.9-0.7 3.8-1.1 1-0.4 1.5-0.6 1.7-0.7l0-14.9zm0.7 26.3l0-5.1c-3.5 2-6.6 3.6-9.3 4.8 -2.7 1.2-5.2 1.8-7.6 1.8 -4.2 0-7.7-1.5-10.4-4.4 -2.7-2.9-4.1-7.2-4.1-12.9 0-5.6 1.4-9.8 4.1-12.5 1.4-1.4 3.1-2.5 5.2-3.2 2.1-0.7 4.3-1.2 6.7-1.6 2.4-0.3 4.8-0.5 7.3-0.5 2.5 0 4.9-0.1 7.3-0.1l0-1.6c0-2-0.1-3.7-0.3-5 -0.2-1.3-0.6-2.4-1.2-3.3 -0.6-0.8-1.6-1.5-3-1.9 -1.3-0.4-3.1-0.6-5.3-0.6 -2 0-4.3 0.2-6.9 0.5 -2.5 0.3-5.6 0.8-9.1 1.4l-1.4-8.3c4.7-1.3 9.2-2.2 13.3-3 4.1-0.7 7.7-1.1 10.7-1.1 7 0 11.7 1.9 14.1 5.7 0.5 0.9 1 1.8 1.4 2.8 0.4 1 0.7 2.1 0.9 3.5 0.2 1.3 0.4 2.9 0.5 4.8 0.1 1.8 0.1 4.1 0.1 6.7l0 33.2 -13 0z"></path><path d="m125.8 98.6l-20.4-27 0 27 -14.2 0 0-82.3 14.2 0 0 50.9 20.3-23.7 14.9 0 -22.8 24.6 24.2 30.4 -16.2 0z"></path><path opacity="0.5" d="m170.2 36.6c0 2.1-1.7 3.9-3.9 3.9 -2.1 0-3.9-1.7-3.9-3.9 0-2.1 1.7-3.9 3.9-3.9 2.1 0 3.9 1.7 3.9 3.9"></path><path opacity="0.5" d="m170.2 28.3c0 2.1-1.7 3.9-3.9 3.9 -2.1 0-3.9-1.7-3.9-3.9 0-2.1 1.7-3.9 3.9-3.9 2.1 0 3.9 1.7 3.9 3.9"></path><path opacity="0.5" d="m170.2 19.9c0 2.1-1.7 3.9-3.9 3.9 -2.1 0-3.9-1.7-3.9-3.9 0-2.1 1.7-3.9 3.9-3.9 2.1 0 3.9 1.7 3.9 3.9"></path><path opacity="0.5" d="m170.2 3.9c0 2.1-1.7 3.9-3.9 3.9 -2.1 0-3.9-1.7-3.9-3.9 0-2.1 1.7-3.9 3.9-3.9 2.1 0 3.9 1.7 3.9 3.9"></path><path opacity="0.5" d="m183.4 9.9c0 2.1-1.7 3.9-3.9 3.9 -2.1 0-3.9-1.7-3.9-3.9 0-2.1 1.7-3.9 3.9-3.9 2.1 0 3.9 1.7 3.9 3.9"></path><path opacity="0.5" d="m207.1 20.4c0 2.1-1.7 3.9-3.9 3.9 -2.1 0-3.9-1.7-3.9-3.9 0-2.1 1.7-3.9 3.9-3.9 2.1 0 3.9 1.7 3.9 3.9"></path><path opacity="0.5" d="m224.1 39.9c0 2.1-1.7 3.9-3.9 3.9 -2.1 0-3.9-1.7-3.9-3.9 0-2.1 1.7-3.9 3.9-3.9 2.1 0 3.9 1.7 3.9 3.9"></path><path opacity="0.5" d="m232.4 64.5c0 2.1-1.7 3.9-3.9 3.9 -2.1 0-3.9-1.7-3.9-3.9 0-2.1 1.7-3.9 3.9-3.9 2.1 0 3.9 1.7 3.9 3.9"></path><path opacity="0.5" d="m229.8 90.3c0 2.1-1.7 3.9-3.9 3.9 -2.1 0-3.9-1.7-3.9-3.9 0-2.1 1.7-3.9 3.9-3.9 2.1 0 3.9 1.7 3.9 3.9"></path><path opacity="0.5" d="m216.9 112.7c0 2.1-1.7 3.9-3.9 3.9 -2.1 0-3.9-1.7-3.9-3.9 0-2.1 1.7-3.9 3.9-3.9 2.1 0 3.9 1.7 3.9 3.9"></path><path opacity="0.5" d="m195.4 128.1c0 2.1-1.7 3.9-3.9 3.9 -2.1 0-3.9-1.7-3.9-3.9 0-2.1 1.7-3.9 3.9-3.9 2.1 0 3.9 1.7 3.9 3.9"></path><path opacity="0.5" d="m170.5 133.6c0 2.1-1.7 3.9-3.9 3.9 -2.1 0-3.9-1.7-3.9-3.9 0-2.1 1.7-3.9 3.9-3.9 2.1 0 3.9 1.7 3.9 3.9"></path><path opacity="0.5" d="m145 127.8c0 2.1-1.7 3.9-3.9 3.9 -2.1 0-3.9-1.7-3.9-3.9 0-2.1 1.7-3.9 3.9-3.9 2.1 0 3.9 1.7 3.9 3.9"></path><path opacity="0.5" d="m123.8 112.7c0 2.1-1.7 3.9-3.9 3.9 -2.1 0-3.9-1.7-3.9-3.9 0-2.1 1.7-3.9 3.9-3.9 2.1 0 3.9 1.7 3.9 3.9"></path><path opacity="0.5" d="m110.4 90c0 2.1-1.7 3.9-3.9 3.9 -2.1 0-3.9-1.7-3.9-3.9 0-2.1 1.7-3.9 3.9-3.9 2.1 0 3.9 1.7 3.9 3.9"></path><path opacity="0.5" d="m116 39.6c0 2.1-1.7 3.9-3.9 3.9 -2.1 0-3.9-1.7-3.9-3.9 0-2.1 1.7-3.9 3.9-3.9 2.1 0 3.9 1.7 3.9 3.9"></path><path opacity="0.5" d="m157.3 9.5c0 2.1-1.7 3.9-3.9 3.9 -2.1 0-3.9-1.7-3.9-3.9 0-2.1 1.7-3.9 3.9-3.9 2.1 0 3.9 1.7 3.9 3.9"></path><path opacity="0.5" d="m133.8 20.1c0 2.1-1.7 3.9-3.9 3.9 -2.1 0-3.9-1.7-3.9-3.9 0-2.1 1.7-3.9 3.9-3.9 2.1 0 3.9 1.7 3.9 3.9"></path><path opacity="0.5" d="m107.4 63.4c0 2.1-1.7 3.9-3.9 3.9 -2.1 0-3.9-1.7-3.9-3.9 0-2.1 1.7-3.9 3.9-3.9 2.1 0 3.9 1.7 3.9 3.9"></path><path opacity="0.5" d="m170.2 11.7c0 2.1-1.7 3.9-3.9 3.9 -2.1 0-3.9-1.7-3.9-3.9 0-2.1 1.7-3.9 3.9-3.9 2.1 0 3.9 1.7 3.9 3.9"></path><path opacity="0.5" d="m184.1 40.9c-0.9 2-3.1 2.8-5.1 2 -1.9-0.9-2.8-3.1-2-5.1 0.9-1.9 3.1-2.8 5.1-2 1.9 0.9 2.8 3.1 2 5.1"></path><path opacity="0.5" d="m187.5 33.3c-0.9 1.9-3.1 2.8-5.1 2 -1.9-0.9-2.8-3.1-2-5.1 0.9-1.9 3.1-2.8 5.1-2 1.9 0.9 2.8 3.1 2 5.1"></path><path opacity="0.5" d="m214 87c-0.9 2-3.1 2.8-5.1 2 -1.9-0.9-2.8-3.1-2-5.1 0.9-1.9 3.1-2.8 5.1-2 1.9 0.9 2.8 3.1 2 5.1"></path><path opacity="0.5" d="m204.2 103.6c-0.9 2-3.1 2.8-5.1 2 -1.9-0.9-2.8-3.1-2-5.1 0.9-1.9 3.1-2.8 5.1-2 1.9 0.9 2.8 3.1 2 5.1"></path><path opacity="0.5" d="m188.5 114.8c-0.9 1.9-3.1 2.8-5.1 2 -1.9-0.9-2.8-3.1-2-5.1 0.9-1.9 3.1-2.8 5.1-2 1.9 0.9 2.8 3.1 2 5.1"></path><path opacity="0.5" d="m169.9 118.5c-0.9 2-3.1 2.8-5.1 2 -1.9-0.9-2.8-3.1-2-5.1 0.9-1.9 3.1-2.8 5.1-2 1.9 0.9 2.8 3.1 2 5.1"></path><path opacity="0.5" d="m150.9 114.5c-0.9 2-3.1 2.8-5.1 2 -1.9-0.9-2.8-3.1-2-5.1 0.9-1.9 3.1-2.8 5.1-2 1.9 0.9 2.8 3.1 2 5.1"></path><path opacity="0.5" d="m135.2 103.1c-0.9 1.9-3.1 2.8-5.1 2 -1.9-0.9-2.8-3.1-2-5.1 0.9-1.9 3.1-2.8 5.1-2 1.9 0.9 2.8 3.1 2 5.1"></path><path opacity="0.5" d="m124.9 85.9c-0.9 2-3.1 2.8-5.1 2 -1.9-0.9-2.8-3.1-2-5.1 0.9-1.9 3.1-2.8 5.1-2 1.9 0.9 2.8 3.1 2 5.1"></path><path opacity="0.5" d="m123.7 67.5c-0.9 2-3.1 2.8-5.1 2 -1.9-0.9-2.8-3.1-2-5.1 0.9-1.9 3.1-2.8 5.1-2 1.9 0.9 2.8 3.1 2 5.1"></path><path opacity="0.5" d="m128.6 48.6c-0.9 1.9-3.1 2.8-5.1 2 -1.9-0.9-2.8-3.1-2-5.1 0.9-1.9 3.1-2.8 5.1-2 1.9 0.9 2.8 3.1 2 5.1"></path><path opacity="0.5" d="m142.3 34.9c-0.9 1.9-3.1 2.8-5.1 2 -1.9-0.9-2.8-3.1-2-5.1 0.9-1.9 3.1-2.8 5.1-2 1.9 0.9 2.8 3.1 2 5.1"></path><path opacity="0.5" d="m160.1 27.1c-0.9 2-3.1 2.8-5.1 2 -1.9-0.9-2.8-3.1-2-5.1 0.9-1.9 3.1-2.8 5.1-2 1.9 0.9 2.8 3.1 2 5.1"></path><path opacity="0.5" d="m210.3 49.5c-0.9 1.9-3.1 2.8-5.1 2 -1.9-0.9-2.8-3.1-2-5.1 0.9-1.9 3.1-2.8 5.1-2 1.9 0.9 2.8 3.1 2 5.1"></path><path opacity="0.5" d="m179.6 27.4c-0.9 2-3.1 2.8-5.1 2 -1.9-0.9-2.8-3.1-2-5.1 0.9-1.9 3.1-2.8 5.1-2 1.9 0.9 2.8 3.1 2 5.1"></path><path opacity="0.5" d="m197.4 35.1c-0.9 2-3.1 2.8-5.1 2 -1.9-0.9-2.8-3.1-2-5.1 0.9-1.9 3.1-2.8 5.1-2 1.9 0.9 2.8 3.1 2 5.1"></path><path opacity="0.5" d="m216.3 67.6c-0.9 2-3.1 2.8-5.1 2 -1.9-0.9-2.8-3.1-2-5.1 0.9-1.9 3.1-2.8 5.1-2 1.9 0.9 2.8 3.1 2 5.1"></path><path opacity="0.5" d="m190.9 25.5c-0.9 1.9-3.1 2.8-5.1 2 -1.9-0.9-2.8-3.1-2-5.1 0.9-1.9 3.1-2.8 5.1-2 1.9 0.9 2.8 3.1 2 5.1"></path><path opacity="0.5" d="m197.4 10.9c-0.9 2-3.1 2.8-5.1 2 -1.9-0.9-2.8-3.1-2-5.1 0.9-1.9 3.1-2.8 5.1-2 1.9 0.9 2.8 3.1 2 5.1"></path><path opacity="0.5" d="m194.2 18.1c-0.9 2-3.1 2.8-5.1 2 -1.9-0.9-2.8-3.1-2-5.1 0.9-1.9 3.1-2.8 5.1-2 1.9 0.9 2.8 3.1 2 5.1"></path><path opacity="0.5" d="m194.8 50.5c-1.6 1.5-4 1.4-5.5-0.2 -1.5-1.6-1.4-4 0.2-5.5 1.6-1.5 4-1.4 5.5 0.2 1.5 1.6 1.4 4-0.2 5.5"></path><path opacity="0.5" d="m200.9 44.8c-1.6 1.5-4 1.4-5.5-0.2 -1.5-1.6-1.4-4 0.2-5.5 1.6-1.5 4-1.4 5.5 0.2 1.5 1.6 1.4 4-0.2 5.5"></path><path opacity="0.5" d="m207 39c-1.6 1.5-4 1.4-5.5-0.2 -1.5-1.6-1.4-4 0.2-5.5 1.6-1.5 4-1.4 5.5 0.2 1.5 1.6 1.4 4-0.2 5.5"></path><path opacity="0.5" d="m218.7 28.1c-1.6 1.5-4 1.4-5.5-0.2 -1.5-1.6-1.4-4 0.2-5.5 1.6-1.5 4-1.4 5.5 0.2 1.5 1.6 1.4 4-0.2 5.5"></path><path opacity="0.5" d="m212.9 33.5c-1.6 1.4-4 1.2-5.4-0.4 -1.4-1.6-1.2-4 0.4-5.4 1.6-1.4 4-1.2 5.4 0.4 1.4 1.6 1.2 4-0.4 5.4"></path><path opacity="0.5" d="m200.2 64.6c-2 0.7-4.2-0.4-4.9-2.4 -0.7-2 0.4-4.2 2.4-4.9 2-0.7 4.2 0.4 4.9 2.4 0.7 2-0.4 4.2-2.4 4.9"></path><path opacity="0.5" d="m208 61.9c-2 0.7-4.2-0.4-4.9-2.4 -0.7-2 0.4-4.2 2.4-4.9 2-0.7 4.2 0.4 4.9 2.4 0.7 2-0.4 4.2-2.4 4.9"></path><path opacity="0.5" d="m216 59.1c-2 0.7-4.2-0.4-4.9-2.4 -0.7-2 0.4-4.2 2.4-4.9 2-0.7 4.2 0.4 4.9 2.4 0.7 2-0.4 4.2-2.4 4.9"></path><path opacity="0.5" d="m231.1 53.8c-2 0.7-4.2-0.4-4.9-2.4 -0.7-2 0.4-4.2 2.4-4.9 2-0.7 4.2 0.4 4.9 2.4 0.7 2-0.4 4.2-2.4 4.9"></path><path opacity="0.5" d="m223.7 56.4c-2 0.7-4.2-0.4-4.9-2.4 -0.7-2 0.4-4.2 2.4-4.9 2-0.7 4.2 0.4 4.9 2.4 0.7 2-0.4 4.2-2.4 4.9"></path><path opacity="0.5" d="m199.8 78.7c-2.1-0.2-3.7-2-3.5-4.2 0.2-2.1 2-3.7 4.2-3.5 2.1 0.2 3.7 2 3.5 4.2 -0.2 2.1-2 3.7-4.2 3.5"></path><path opacity="0.5" d="m208.1 79.4c-2.1-0.2-3.7-2-3.5-4.2 0.2-2.1 2-3.7 4.2-3.5 2.1 0.2 3.7 2.1 3.5 4.2 -0.2 2.1-2 3.7-4.2 3.5"></path><path opacity="0.5" d="m216.5 80.1c-2.1-0.2-3.7-2-3.5-4.2 0.2-2.1 2-3.7 4.2-3.5 2.1 0.2 3.7 2 3.5 4.2 -0.2 2.1-2 3.7-4.2 3.5"></path><path opacity="0.5" d="m232.5 81.4c-2.1-0.2-3.7-2-3.5-4.2 0.2-2.1 2-3.7 4.2-3.5 2.1 0.2 3.7 2 3.5 4.2 -0.2 2.1-2 3.7-4.2 3.5"></path><path opacity="0.5" d="m224.6 80.8c-2.1-0.2-3.7-2-3.5-4.2 0.2-2.1 2.1-3.7 4.2-3.5 2.1 0.2 3.7 2 3.5 4.2 -0.2 2.1-2 3.7-4.2 3.5"></path><path opacity="0.5" d="m194.1 91.2c-1.8-1.1-2.4-3.5-1.3-5.3 1.1-1.8 3.5-2.4 5.3-1.3 1.8 1.1 2.4 3.5 1.3 5.3 -1.1 1.8-3.5 2.4-5.3 1.3"></path><path opacity="0.5" d="m201.2 95.5c-1.8-1.1-2.4-3.5-1.3-5.3 1.1-1.8 3.5-2.4 5.3-1.3 1.8 1.1 2.4 3.5 1.3 5.3 -1.1 1.8-3.5 2.4-5.3 1.3"></path><path opacity="0.5" d="m208.4 100c-1.8-1.1-2.4-3.5-1.3-5.3 1.1-1.8 3.5-2.4 5.3-1.3 1.8 1.1 2.4 3.5 1.3 5.3 -1.1 1.8-3.5 2.4-5.3 1.3"></path><path opacity="0.5" d="m222 108.4c-1.8-1.1-2.4-3.5-1.3-5.3 1.1-1.8 3.5-2.4 5.3-1.3 1.8 1.1 2.4 3.5 1.3 5.3 -1.1 1.8-3.5 2.4-5.3 1.3"></path><path opacity="0.5" d="m215.3 104.2c-1.8-1.1-2.4-3.5-1.3-5.3 1.1-1.8 3.5-2.4 5.3-1.3 1.8 1.1 2.4 3.5 1.3 5.3 -1.1 1.8-3.5 2.4-5.3 1.3"></path><path opacity="0.5" d="m183.6 100.4c-1.3-1.7-0.9-4.1 0.8-5.4 1.7-1.3 4.1-0.9 5.4 0.8 1.3 1.7 0.9 4.1-0.8 5.4 -1.7 1.3-4.1 0.9-5.4-0.8"></path><path opacity="0.5" d="m188.5 107.1c-1.3-1.7-0.9-4.1 0.8-5.4 1.7-1.3 4.1-0.9 5.4 0.8 1.3 1.7 0.9 4.1-0.8 5.4 -1.7 1.3-4.1 0.9-5.4-0.8"></path><path opacity="0.5" d="m193.5 113.9c-1.3-1.7-0.9-4.1 0.8-5.4 1.7-1.3 4.1-0.9 5.4 0.8 1.3 1.7 0.9 4.1-0.8 5.4 -1.7 1.3-4.1 0.9-5.4-0.8"></path><path opacity="0.5" d="m203 126.7c-1.3-1.7-0.9-4.1 0.8-5.4 1.7-1.3 4.1-0.9 5.4 0.8 1.3 1.7 0.9 4.1-0.8 5.4 -1.7 1.3-4.1 0.9-5.4-0.8"></path><path opacity="0.5" d="m198.4 120.4c-1.3-1.7-0.9-4.1 0.8-5.4 1.7-1.3 4.1-0.9 5.4 0.8 1.3 1.7 0.9 4.1-0.8 5.4 -1.7 1.3-4.1 0.9-5.4-0.8"></path><path opacity="0.5" d="m169.9 104.5c-0.5-2.1 0.8-4.1 2.9-4.6 2.1-0.5 4.1 0.8 4.6 2.9 0.5 2.1-0.8 4.1-2.9 4.6 -2.1 0.5-4.1-0.8-4.6-2.9"></path><path opacity="0.5" d="m171.7 112.6c-0.5-2.1 0.8-4.1 2.9-4.6 2.1-0.5 4.1 0.8 4.6 2.9 0.5 2.1-0.8 4.1-2.9 4.6 -2.1 0.5-4.1-0.8-4.6-2.9"></path><path opacity="0.5" d="m173.6 120.8c-0.5-2.1 0.8-4.1 2.9-4.6 2.1-0.5 4.1 0.8 4.6 2.9 0.5 2.1-0.8 4.1-2.9 4.6 -2.1 0.5-4.1-0.8-4.6-2.9"></path><path opacity="0.5" d="m177.1 136.4c-0.5-2.1 0.8-4.1 2.9-4.6 2.1-0.5 4.1 0.8 4.6 2.9 0.5 2.1-0.8 4.1-2.9 4.6 -2.1 0.5-4.1-0.8-4.6-2.9"></path><path opacity="0.5" d="m175.4 128.8c-0.5-2.1 0.8-4.1 2.9-4.6 2.1-0.5 4.1 0.8 4.6 2.9 0.5 2.1-0.8 4.1-2.9 4.6 -2.1 0.5-4.1-0.8-4.6-2.9"></path><path opacity="0.5" d="m155.7 103.2c0.4-2.1 2.5-3.4 4.6-3 2.1 0.4 3.4 2.5 3 4.6 -0.4 2.1-2.5 3.4-4.6 3 -2.1-0.4-3.4-2.5-3-4.6"></path><path opacity="0.5" d="m154 111.3c0.4-2.1 2.5-3.4 4.6-3 2.1 0.4 3.4 2.5 3 4.6 -0.4 2.1-2.5 3.4-4.6 3 -2.1-0.4-3.4-2.5-3-4.6"></path><path opacity="0.5" d="m152.3 119.6c0.4-2.1 2.5-3.4 4.6-3 2.1 0.4 3.4 2.5 3 4.6 -0.4 2.1-2.5 3.4-4.6 3 -2.1-0.4-3.4-2.5-3-4.6"></path><path opacity="0.5" d="m149 135.2c0.4-2.1 2.5-3.4 4.6-3 2.1 0.4 3.4 2.5 3 4.6 -0.4 2.1-2.5 3.4-4.6 3 -2.1-0.4-3.4-2.5-3-4.6"></path><path opacity="0.5" d="m150.6 127.6c0.4-2.1 2.5-3.4 4.6-3 2.1 0.4 3.4 2.5 3 4.6 -0.4 2.1-2.5 3.4-4.6 3 -2.1-0.4-3.4-2.5-3-4.6"></path><path opacity="0.5" d="m143.6 96c1.3-1.7 3.7-2.1 5.4-0.8 1.7 1.3 2.1 3.7 0.8 5.4 -1.3 1.7-3.7 2.1-5.4 0.8 -1.7-1.3-2.1-3.7-0.8-5.4"></path><path opacity="0.5" d="m138.7 102.7c1.3-1.7 3.7-2.1 5.4-0.8 1.7 1.3 2.1 3.7 0.8 5.4 -1.3 1.7-3.7 2.1-5.4 0.8 -1.7-1.3-2.1-3.7-0.8-5.4"></path><path opacity="0.5" d="m133.7 109.5c1.3-1.7 3.7-2.1 5.4-0.8 1.7 1.3 2.1 3.7 0.8 5.4 -1.3 1.7-3.7 2.1-5.4 0.8 -1.7-1.3-2.1-3.7-0.8-5.4"></path><path opacity="0.5" d="m124.1 122.3c1.3-1.7 3.7-2.1 5.4-0.8 1.7 1.3 2.1 3.7 0.8 5.4 -1.3 1.7-3.7 2.1-5.4 0.8 -1.7-1.3-2.1-3.7-0.8-5.4"></path><path opacity="0.5" d="m128.8 116c1.3-1.7 3.7-2.1 5.4-0.8 1.7 1.3 2.1 3.7 0.8 5.4 -1.3 1.7-3.7 2.1-5.4 0.8 -1.7-1.3-2.1-3.7-0.8-5.4"></path><path opacity="0.5" d="m134.8 84.6c1.8-1.1 4.2-0.4 5.3 1.4 1.1 1.8 0.5 4.2-1.4 5.3 -1.8 1.1-4.2 0.4-5.3-1.4 -1.1-1.8-0.5-4.2 1.4-5.3"></path><path opacity="0.5" d="m127.7 88.8c1.8-1.1 4.2-0.4 5.3 1.4 1.1 1.8 0.4 4.2-1.4 5.3 -1.8 1.1-4.2 0.5-5.3-1.4 -1.1-1.8-0.5-4.2 1.4-5.3"></path><path opacity="0.5" d="m120.4 93c1.8-1.1 4.2-0.4 5.3 1.4 1.1 1.8 0.5 4.2-1.4 5.3 -1.8 1.1-4.2 0.5-5.3-1.4 -1.1-1.8-0.5-4.2 1.4-5.3"></path><path opacity="0.5" d="m106.5 101.1c1.8-1.1 4.2-0.4 5.3 1.4 1.1 1.8 0.5 4.2-1.4 5.3 -1.8 1.1-4.2 0.5-5.3-1.4 -1.1-1.8-0.5-4.2 1.4-5.3"></path><path opacity="0.5" d="m113.3 97.1c1.8-1.1 4.2-0.4 5.3 1.4 1.1 1.8 0.5 4.2-1.4 5.3 -1.8 1.1-4.2 0.5-5.3-1.4 -1.1-1.8-0.4-4.2 1.4-5.3"></path><path opacity="0.5" d="m132.2 70.5c2.1-0.1 3.9 1.5 4 3.7 0.1 2.1-1.5 3.9-3.7 4 -2.1 0.1-3.9-1.5-4-3.7 -0.1-2.1 1.5-3.9 3.7-4"></path><path opacity="0.5" d="m123.9 70.9c2.1-0.1 3.9 1.5 4 3.7 0.1 2.1-1.5 3.9-3.7 4 -2.1 0.1-3.9-1.5-4-3.7 -0.1-2.1 1.5-3.9 3.7-4"></path><path opacity="0.5" d="m115.4 71.3c2.1-0.1 3.9 1.5 4 3.7 0.1 2.1-1.5 3.9-3.7 4 -2.1 0.1-3.9-1.5-4-3.7 -0.1-2.1 1.5-3.9 3.7-4"></path><path opacity="0.5" d="m99.4 72.1c2.1-0.1 3.9 1.5 4 3.7 0.1 2.1-1.5 3.9-3.7 4 -2.1 0.1-3.9-1.5-4-3.7 -0.1-2.1 1.5-3.9 3.7-4"></path><path opacity="0.5" d="m107.3 71.7c2.1-0.1 3.9 1.5 4 3.7 0.1 2.1-1.5 3.9-3.7 4 -2.1 0.1-3.9-1.5-4-3.7 -0.1-2.1 1.5-3.9 3.7-4"></path><path opacity="0.5" d="m135.2 57c2 0.7 3.1 2.9 2.4 4.9 -0.7 2-2.9 3.1-4.9 2.5 -2-0.7-3.1-2.9-2.4-4.9 0.7-2 2.9-3.1 4.9-2.4"></path><path opacity="0.5" d="m127.3 54.4c2 0.7 3.1 2.9 2.4 4.9 -0.7 2-2.9 3.1-4.9 2.4 -2-0.7-3.1-2.9-2.4-4.9 0.7-2 2.9-3.1 4.9-2.4"></path><path opacity="0.5" d="m119.2 51.7c2 0.7 3.1 2.9 2.4 4.9 -0.7 2-2.9 3.1-4.9 2.4 -2-0.7-3.1-2.9-2.4-4.9 0.7-2 2.9-3.1 4.9-2.4"></path><path opacity="0.5" d="m104.1 46.6c2 0.7 3.1 2.9 2.4 4.9 -0.7 2-2.9 3.1-4.9 2.4 -2-0.7-3.1-2.9-2.4-4.9 0.7-2 2.9-3.1 4.9-2.4"></path><path opacity="0.5" d="m111.5 49.1c2 0.7 3.1 2.9 2.5 4.9 -0.7 2-2.9 3.1-4.9 2.4 -2-0.7-3.1-2.9-2.4-4.9 0.7-2 2.9-3.1 4.9-2.4"></path><path opacity="0.5" d="m144 45c1.6 1.4 1.7 3.9 0.2 5.5 -1.4 1.6-3.9 1.7-5.5 0.2 -1.6-1.4-1.7-3.9-0.2-5.5 1.4-1.6 3.9-1.7 5.5-0.2"></path><path opacity="0.5" d="m137.9 39.4c1.6 1.4 1.7 3.9 0.2 5.5 -1.4 1.6-3.9 1.7-5.5 0.2 -1.6-1.4-1.7-3.9-0.2-5.5 1.4-1.6 3.9-1.7 5.5-0.2"></path><path opacity="0.5" d="m131.3 33.4c1.7 1.3 2.1 3.7 0.8 5.4 -1.3 1.7-3.7 2.1-5.4 0.8 -1.7-1.3-2.1-3.7-0.8-5.4 1.3-1.7 3.7-2.1 5.4-0.8"></path><path opacity="0.5" d="m119.8 22.9c1.6 1.4 1.7 3.9 0.2 5.5 -1.4 1.6-3.9 1.7-5.5 0.2 -1.6-1.4-1.7-3.9-0.2-5.5 1.4-1.6 3.9-1.7 5.5-0.2"></path><path opacity="0.5" d="m125.6 28.2c1.6 1.4 1.7 3.9 0.2 5.5 -1.4 1.6-3.9 1.7-5.5 0.2 -1.6-1.4-1.7-3.9-0.2-5.5 1.4-1.6 3.9-1.7 5.5-0.2"></path><path opacity="0.5" d="m155.6 38.2c0.9 1.9 0.1 4.2-1.9 5.1 -1.9 0.9-4.2 0.1-5.1-1.9 -0.9-1.9-0.1-4.2 1.9-5.1 1.9-0.9 4.2-0.1 5.1 1.9"></path><path opacity="0.5" d="m152.1 30.7c0.9 1.9 0.1 4.2-1.9 5.1 -1.9 0.9-4.2 0.1-5.1-1.9 -0.9-1.9-0.1-4.2 1.9-5.1 1.9-0.9 4.2-0.1 5.1 1.9"></path><path opacity="0.5" d="m148.5 23c0.9 1.9 0.1 4.2-1.9 5.1 -1.9 0.9-4.2 0.1-5.1-1.9 -0.9-1.9-0.1-4.2 1.9-5.1 1.9-0.9 4.2-0.1 5.1 1.9"></path><path opacity="0.5" d="m141.7 8.5c0.9 1.9 0.1 4.2-1.9 5.1 -1.9 0.9-4.2 0.1-5.1-1.9 -0.9-1.9-0.1-4.2 1.9-5.1 1.9-0.9 4.2-0.1 5.1 1.9"></path><path opacity="0.5" d="m145.1 15.6c0.9 1.9 0.1 4.2-1.9 5.1 -1.9 0.9-4.2 0.1-5.1-1.9 -0.9-1.9-0.1-4.2 1.9-5.1 1.9-0.9 4.2-0.1 5.1 1.9"></path></svg>