<?xml version="1.0" encoding="UTF-8" standalone="no"?>
<!DOCTYPE svg PUBLIC "-//W3C//DTD SVG 1.1//EN" "http://www.w3.org/Graphics/SVG/1.1/DTD/svg11.dtd">
<svg width="100%" height="100%" viewBox="450 0 3500 2481" version="1.1" xmlns="http://www.w3.org/2000/svg" xmlns:xlink="http://www.w3.org/1999/xlink" xml:space="preserve" xmlns:serif="http://www.serif.com/" style="fill-rule:evenodd;clip-rule:evenodd;stroke-linejoin:round;stroke-miterlimit:2;">
    <g id="Page-1" serif:id="Page 1" transform="matrix(4.16667,0,0,4.16667,0,0)">
        <rect x="0" y="0" width="141.89" height="595.276" style="fill:none;"/>
        <g id="Layer-1" serif:id="Layer 1">
            <g transform="matrix(1,0,0,1,263.851,244.957)">
                <path d="M0,69.58C-20.79,90.37 -54.618,90.37 -75.408,69.58C-96.198,48.79 -96.198,14.962 -75.408,-5.828C-68.599,-12.637 -60.087,-17.476 -50.795,-19.821C-46.954,-20.79 -43.053,-18.462 -42.084,-14.62C-41.115,-10.779 -43.445,-6.879 -47.285,-5.909C-54.067,-4.197 -60.284,-0.661 -65.262,4.318C-80.458,19.514 -80.458,44.239 -65.262,59.434C-50.067,74.631 -25.341,74.631 -10.146,59.434C-2.726,52.015 1.328,42.15 1.269,31.656C1.247,27.693 4.442,24.464 8.402,24.442C12.365,24.419 15.594,27.613 15.617,31.575C15.697,45.932 10.151,59.429 0,69.58" style="fill:rgb(200,205,79);fill-rule:nonzero;"/>
            </g>
            <g transform="matrix(1,0,0,1,226.093,195.459)">
                <path d="M0,163.878C-45.181,163.878 -81.939,127.12 -81.939,81.939C-81.939,46.156 -59.06,14.79 -25.007,3.888C-16.948,1.308 -8.535,0 0,0C3.962,0 7.174,3.211 7.174,7.173C7.174,11.135 3.962,14.347 0,14.347C-7.048,14.347 -13.989,15.426 -20.632,17.553C-48.72,26.545 -67.591,52.42 -67.591,81.939C-67.591,119.209 -37.27,149.53 0,149.53C25.899,149.53 49.127,135.099 60.621,111.87C65.246,102.523 67.591,92.453 67.591,81.939C67.591,77.977 70.804,74.765 74.765,74.765C78.727,74.765 81.939,77.977 81.939,81.939C81.939,94.679 79.094,106.891 73.481,118.233C59.55,146.388 31.394,163.878 0,163.878" style="fill:rgb(78,179,121);fill-rule:nonzero;"/>
            </g>
            <g transform="matrix(1,0,0,1,226.093,167.297)">
                <path d="M0,220.201C-9.388,220.201 -18.717,219.015 -27.727,216.679C-76.228,204.093 -110.1,160.266 -110.1,110.1C-110.1,49.391 -60.709,0 0,0C30.721,0 60.271,12.978 81.072,35.606C83.754,38.522 83.563,43.06 80.646,45.742C77.73,48.424 73.191,48.233 70.51,45.316C52.417,25.636 26.717,14.348 0,14.348C-52.798,14.348 -95.752,57.303 -95.752,110.1C-95.752,153.73 -66.298,191.846 -24.125,202.79C-16.29,204.822 -8.173,205.853 0,205.853C3.962,205.853 7.174,209.065 7.174,213.027C7.174,216.989 3.962,220.201 0,220.201" style="fill:rgb(38,120,122);fill-rule:nonzero;"/>
            </g>
            <g transform="matrix(1,0,0,1,247.492,267.503)">
                <path d="M0,18.672C-1.108,16.324 -3.524,14.675 -6.157,14.471C-8.575,14.29 -10.826,15.326 -12.229,17.264C-13.079,18.328 -14.37,19.366 -15.65,20.027C-17.337,20.871 -19.15,21.335 -20.757,21.335C-26.903,21.335 -31.902,15.969 -31.902,9.373C-31.902,3.247 -28.719,-0.633 -22.936,-1.561C-17.958,-2.112 -14.988,-1.238 -12.386,1.517C-9.736,4.355 -5.351,4.482 -2.4,1.805C0.483,-0.81 0.716,-4.983 -1.857,-7.899C-1.898,-7.946 -1.94,-7.991 -1.982,-8.036C-7.854,-14.204 -15.793,-16.804 -25.036,-15.539C-37.318,-13.625 -46.232,-3.175 -46.232,9.31C-46.232,23.738 -34.861,35.476 -20.883,35.476C-17.294,35.476 -13.217,34.513 -9.295,32.714C-5.741,30.978 -2.753,28.501 -0.641,25.528C0.811,23.462 1.05,20.899 0,18.672" style="fill:rgb(200,205,79);fill-rule:nonzero;"/>
            </g>
            <g transform="matrix(1,0,0,1,357.324,196.463)">
                <path d="M0,36.727C-3.193,33.746 -4.896,29.506 -5.106,24.009C-5.149,22.867 -5.17,21.007 -5.17,18.427C-5.17,15.805 -5.149,13.902 -5.106,12.718C-4.896,7.306 -3.183,3.087 0.032,0.063C3.245,-2.96 7.749,-4.472 13.542,-4.472C17.306,-4.472 20.583,-3.827 23.375,-2.537C26.166,-1.247 28.332,0.518 29.876,2.759C31.419,5.001 32.233,7.517 32.318,10.308L32.318,10.435C32.318,10.773 32.181,11.059 31.906,11.291C31.63,11.524 31.324,11.64 30.986,11.64L24.833,11.64C24.326,11.64 23.945,11.524 23.691,11.291C23.438,11.059 23.226,10.646 23.057,10.054C22.423,7.432 21.323,5.582 19.759,4.503C18.194,3.425 16.122,2.886 13.542,2.886C7.495,2.886 4.345,6.269 4.091,13.035C4.048,14.177 4.028,15.932 4.028,18.3C4.028,20.669 4.048,22.466 4.091,23.691C4.345,30.458 7.495,33.841 13.542,33.841C16.08,33.841 18.141,33.302 19.727,32.223C21.313,31.145 22.423,29.295 23.057,26.673C23.226,26.081 23.438,25.669 23.691,25.436C23.945,25.204 24.326,25.087 24.833,25.087L30.986,25.087C31.367,25.087 31.694,25.214 31.969,25.468C32.244,25.722 32.36,26.039 32.318,26.419C32.233,29.21 31.419,31.727 29.876,33.968C28.332,36.209 26.166,37.975 23.375,39.264C20.583,40.555 17.306,41.199 13.542,41.199C7.707,41.199 3.192,39.708 0,36.727" style="fill:rgb(38,120,122);fill-rule:nonzero;"/>
            </g>
            <g transform="matrix(1,0,0,1,421.041,201.887)">
                <path d="M0,25.879C1.649,24.189 2.537,21.587 2.664,18.077C2.749,15.54 2.791,13.827 2.791,12.939C2.791,11.967 2.749,10.254 2.664,7.801C2.537,4.334 1.627,1.743 -0.063,0.031C-1.755,-1.682 -3.975,-2.538 -6.724,-2.538C-9.515,-2.538 -11.756,-1.682 -13.447,0.031C-15.139,1.743 -16.027,4.334 -16.111,7.801C-16.154,9.028 -16.175,10.741 -16.175,12.939C-16.175,15.096 -16.154,16.809 -16.111,18.077C-16.027,21.545 -15.15,24.135 -13.479,25.847C-11.809,27.56 -9.557,28.417 -6.724,28.417C-3.891,28.417 -1.649,27.571 0,25.879M-20.234,31.398C-23.449,28.48 -25.141,24.146 -25.309,18.394C-25.352,17.168 -25.373,15.371 -25.373,13.003C-25.373,10.592 -25.352,8.775 -25.309,7.547C-25.141,1.924 -23.406,-2.39 -20.108,-5.392C-16.809,-8.394 -12.348,-9.896 -6.724,-9.896C-1.142,-9.896 3.309,-8.394 6.629,-5.392C9.948,-2.39 11.692,1.924 11.862,7.547C11.946,10.001 11.989,11.819 11.989,13.003C11.989,14.144 11.946,15.942 11.862,18.394C11.692,24.146 9.991,28.48 6.755,31.398C3.521,34.316 -0.973,35.775 -6.724,35.775C-12.518,35.775 -17.021,34.316 -20.234,31.398" style="fill:rgb(38,120,122);fill-rule:nonzero;"/>
            </g>
            <g transform="matrix(1,0,0,1,441.719,193.07)">
                <path d="M0,43.514C-0.296,43.219 -0.444,42.859 -0.444,42.435L-0.444,1.141C-0.444,0.677 -0.307,0.296 -0.032,0C0.243,-0.296 0.613,-0.444 1.079,-0.444L6.026,-0.444C6.829,-0.444 7.442,-0.085 7.866,0.634L26.007,28.798L26.007,1.141C26.007,0.677 26.144,0.296 26.419,0C26.694,-0.296 27.063,-0.444 27.529,-0.444L32.984,-0.444C33.449,-0.444 33.83,-0.296 34.126,0C34.422,0.296 34.57,0.677 34.57,1.141L34.57,42.372C34.57,42.838 34.422,43.219 34.126,43.514C33.83,43.81 33.47,43.958 33.048,43.958L28.037,43.958C27.19,43.958 26.556,43.599 26.134,42.88L8.056,15.35L8.056,42.435C8.056,42.859 7.918,43.219 7.644,43.514C7.368,43.81 6.999,43.958 6.534,43.958L1.079,43.958C0.655,43.958 0.295,43.81 0,43.514" style="fill:rgb(38,120,122);fill-rule:nonzero;"/>
            </g>
            <g transform="matrix(1,0,0,1,486.564,193.07)">
                <path d="M0,43.514C-0.296,43.219 -0.444,42.859 -0.444,42.435L-0.444,1.141C-0.444,0.677 -0.307,0.296 -0.032,0C0.243,-0.296 0.613,-0.444 1.079,-0.444L6.026,-0.444C6.829,-0.444 7.442,-0.085 7.866,0.634L26.007,28.798L26.007,1.141C26.007,0.677 26.144,0.296 26.419,0C26.694,-0.296 27.063,-0.444 27.529,-0.444L32.984,-0.444C33.449,-0.444 33.83,-0.296 34.126,0C34.422,0.296 34.57,0.677 34.57,1.141L34.57,42.372C34.57,42.838 34.422,43.219 34.126,43.514C33.83,43.81 33.47,43.958 33.048,43.958L28.037,43.958C27.19,43.958 26.556,43.599 26.134,42.88L8.056,15.35L8.056,42.435C8.056,42.859 7.918,43.219 7.644,43.514C7.368,43.81 6.999,43.958 6.534,43.958L1.079,43.958C0.655,43.958 0.295,43.81 0,43.514" style="fill:rgb(38,120,122);fill-rule:nonzero;"/>
            </g>
            <g transform="matrix(1,0,0,1,531.409,193.07)">
                <path d="M0,43.514C-0.296,43.219 -0.444,42.859 -0.444,42.435L-0.444,1.141C-0.444,0.677 -0.307,0.296 -0.032,0C0.243,-0.296 0.613,-0.444 1.079,-0.444L29.052,-0.444C29.517,-0.444 29.897,-0.296 30.193,0C30.489,0.296 30.638,0.677 30.638,1.141L30.638,5.391C30.638,5.857 30.489,6.227 30.193,6.501C29.897,6.777 29.517,6.914 29.052,6.914L8.246,6.914L8.246,18.014L27.656,18.014C28.121,18.014 28.501,18.163 28.798,18.458C29.093,18.755 29.242,19.135 29.242,19.6L29.242,23.597C29.242,24.062 29.093,24.432 28.798,24.706C28.501,24.982 28.121,25.118 27.656,25.118L8.246,25.118L8.246,36.6L29.559,36.6C30.024,36.6 30.405,36.738 30.701,37.012C30.996,37.287 31.145,37.657 31.145,38.122L31.145,42.435C31.145,42.901 30.996,43.271 30.701,43.546C30.405,43.821 30.024,43.958 29.559,43.958L1.079,43.958C0.655,43.958 0.295,43.81 0,43.514" style="fill:rgb(38,120,122);fill-rule:nonzero;"/>
            </g>
            <g transform="matrix(1,0,0,1,573.686,196.463)">
                <path d="M0,36.727C-3.193,33.746 -4.896,29.506 -5.106,24.009C-5.149,22.867 -5.17,21.007 -5.17,18.427C-5.17,15.805 -5.149,13.902 -5.106,12.718C-4.896,7.306 -3.183,3.087 0.032,0.063C3.245,-2.96 7.749,-4.472 13.542,-4.472C17.306,-4.472 20.583,-3.827 23.375,-2.537C26.166,-1.247 28.332,0.518 29.876,2.759C31.419,5.001 32.233,7.517 32.318,10.308L32.318,10.435C32.318,10.773 32.181,11.059 31.906,11.291C31.63,11.524 31.324,11.64 30.986,11.64L24.833,11.64C24.326,11.64 23.945,11.524 23.691,11.291C23.438,11.059 23.226,10.646 23.057,10.054C22.423,7.432 21.323,5.582 19.759,4.503C18.194,3.425 16.122,2.886 13.542,2.886C7.495,2.886 4.345,6.269 4.091,13.035C4.048,14.177 4.028,15.932 4.028,18.3C4.028,20.669 4.048,22.466 4.091,23.691C4.345,30.458 7.495,33.841 13.542,33.841C16.08,33.841 18.141,33.302 19.727,32.223C21.313,31.145 22.423,29.295 23.057,26.673C23.226,26.081 23.438,25.669 23.691,25.436C23.945,25.204 24.326,25.087 24.833,25.087L30.986,25.087C31.367,25.087 31.694,25.214 31.969,25.468C32.244,25.722 32.36,26.039 32.318,26.419C32.233,29.21 31.419,31.727 29.876,33.968C28.332,36.209 26.166,37.975 23.375,39.264C20.583,40.555 17.306,41.199 13.542,41.199C7.707,41.199 3.192,39.708 0,36.727" style="fill:rgb(38,120,122);fill-rule:nonzero;"/>
            </g>
            <g transform="matrix(1,0,0,1,623.765,193.07)">
                <path d="M0,43.514C-0.296,43.219 -0.444,42.859 -0.444,42.435L-0.444,7.485L-12.179,7.485C-12.602,7.485 -12.962,7.337 -13.257,7.041C-13.554,6.745 -13.701,6.365 -13.701,5.899L-13.701,1.141C-13.701,0.677 -13.564,0.296 -13.289,0C-13.014,-0.296 -12.645,-0.444 -12.179,-0.444L20.235,-0.444C20.7,-0.444 21.08,-0.296 21.376,0C21.672,0.296 21.82,0.677 21.82,1.141L21.82,5.899C21.82,6.365 21.672,6.745 21.376,7.041C21.08,7.337 20.7,7.485 20.235,7.485L8.563,7.485L8.563,42.435C8.563,42.859 8.425,43.219 8.151,43.514C7.875,43.81 7.506,43.958 7.041,43.958L1.078,43.958C0.655,43.958 0.295,43.81 0,43.514" style="fill:rgb(38,120,122);fill-rule:nonzero;"/>
            </g>
            <g transform="matrix(1,0,0,1,652.435,193.07)">
                <path d="M0,43.514C-0.296,43.219 -0.444,42.859 -0.444,42.435L-0.444,1.141C-0.444,0.677 -0.307,0.296 -0.032,0C0.243,-0.296 0.613,-0.444 1.079,-0.444L29.052,-0.444C29.517,-0.444 29.897,-0.296 30.193,0C30.489,0.296 30.638,0.677 30.638,1.141L30.638,5.391C30.638,5.857 30.489,6.227 30.193,6.501C29.897,6.777 29.517,6.914 29.052,6.914L8.246,6.914L8.246,18.014L27.656,18.014C28.121,18.014 28.501,18.163 28.798,18.458C29.093,18.755 29.242,19.135 29.242,19.6L29.242,23.597C29.242,24.062 29.093,24.432 28.798,24.706C28.501,24.982 28.121,25.118 27.656,25.118L8.246,25.118L8.246,36.6L29.559,36.6C30.024,36.6 30.405,36.738 30.701,37.012C30.996,37.287 31.145,37.657 31.145,38.122L31.145,42.435C31.145,42.901 30.996,43.271 30.701,43.546C30.405,43.821 30.024,43.958 29.559,43.958L1.079,43.958C0.655,43.958 0.295,43.81 0,43.514" style="fill:rgb(38,120,122);fill-rule:nonzero;"/>
            </g>
            <g transform="matrix(1,0,0,1,708.508,199.984)">
                <path d="M0,29.686C3.51,29.686 6.047,28.904 7.612,27.339C9.176,25.775 10,23.174 10.085,19.537C10.17,16.999 10.212,15.414 10.212,14.779C10.212,14.103 10.17,12.539 10.085,10.085C10,6.619 9.134,4.07 7.485,2.442C5.836,0.814 3.235,-0 -0.317,-0L-8.056,-0L-8.056,29.686L0,29.686ZM-16.556,36.6C-16.852,36.305 -17,35.945 -17,35.521L-17,-5.772C-17,-6.237 -16.863,-6.618 -16.587,-6.914C-16.313,-7.21 -15.943,-7.358 -15.477,-7.358L0,-7.358C12.474,-7.358 18.839,-1.607 19.093,9.895C19.177,12.348 19.22,13.998 19.22,14.843C19.22,15.646 19.177,17.275 19.093,19.727C18.923,25.648 17.327,30.014 14.304,32.826C11.28,35.639 6.618,37.044 0.317,37.044L-15.477,37.044C-15.9,37.044 -16.26,36.896 -16.556,36.6" style="fill:rgb(38,120,122);fill-rule:nonzero;"/>
            </g>
            <g transform="matrix(1,0,0,1,354.184,255.136)">
                <path d="M0,43.514C-0.296,43.219 -0.444,42.859 -0.444,42.435L-0.444,1.141C-0.444,0.677 -0.307,0.296 -0.032,0C0.243,-0.296 0.613,-0.444 1.079,-0.444L6.914,-0.444C7.379,-0.444 7.76,-0.296 8.056,0C8.351,0.296 8.5,0.677 8.5,1.141L8.5,17.443L27.022,17.443L27.022,1.141C27.022,0.677 27.169,0.296 27.466,0C27.761,-0.296 28.121,-0.444 28.544,-0.444L34.443,-0.444C34.908,-0.444 35.278,-0.296 35.554,0C35.828,0.296 35.966,0.677 35.966,1.141L35.966,42.435C35.966,42.859 35.828,43.219 35.554,43.514C35.278,43.81 34.908,43.958 34.443,43.958L28.544,43.958C28.121,43.958 27.761,43.81 27.466,43.514C27.169,43.219 27.022,42.859 27.022,42.435L27.022,25.499L8.5,25.499L8.5,42.435C8.5,42.859 8.351,43.219 8.056,43.514C7.76,43.81 7.379,43.958 6.914,43.958L1.079,43.958C0.655,43.958 0.295,43.81 0,43.514" style="fill:rgb(38,120,122);fill-rule:nonzero;"/>
            </g>
            <g transform="matrix(1,0,0,1,423.895,263.954)">
                <path d="M0,25.879C1.649,24.189 2.537,21.587 2.664,18.077C2.749,15.54 2.791,13.827 2.791,12.939C2.791,11.967 2.749,10.254 2.664,7.801C2.537,4.334 1.627,1.743 -0.063,0.031C-1.755,-1.682 -3.975,-2.538 -6.724,-2.538C-9.515,-2.538 -11.756,-1.682 -13.447,0.031C-15.139,1.743 -16.027,4.334 -16.111,7.801C-16.154,9.028 -16.175,10.741 -16.175,12.939C-16.175,15.096 -16.154,16.809 -16.111,18.077C-16.027,21.545 -15.15,24.135 -13.479,25.847C-11.809,27.56 -9.557,28.417 -6.724,28.417C-3.891,28.417 -1.649,27.571 0,25.879M-20.234,31.398C-23.449,28.48 -25.141,24.146 -25.309,18.394C-25.352,17.168 -25.373,15.371 -25.373,13.003C-25.373,10.592 -25.352,8.775 -25.309,7.547C-25.141,1.924 -23.406,-2.39 -20.108,-5.392C-16.809,-8.394 -12.348,-9.896 -6.724,-9.896C-1.142,-9.896 3.309,-8.394 6.629,-5.392C9.948,-2.39 11.692,1.924 11.862,7.547C11.946,10.001 11.989,11.819 11.989,13.003C11.989,14.144 11.946,15.942 11.862,18.394C11.692,24.146 9.991,28.48 6.755,31.398C3.521,34.316 -0.973,35.775 -6.724,35.775C-12.518,35.775 -17.021,34.316 -20.234,31.398" style="fill:rgb(38,120,122);fill-rule:nonzero;"/>
            </g>
            <g transform="matrix(1,0,0,1,444.573,255.136)">
                <path d="M0,43.514C-0.296,43.219 -0.444,42.859 -0.444,42.435L-0.444,1.141C-0.444,0.677 -0.307,0.296 -0.032,0C0.243,-0.296 0.613,-0.444 1.079,-0.444L6.216,-0.444C7.019,-0.444 7.653,-0.042 8.119,0.761L20.362,23.47L32.604,0.761C33.069,-0.042 33.703,-0.444 34.507,-0.444L39.582,-0.444C40.046,-0.444 40.427,-0.296 40.723,0C41.019,0.296 41.167,0.677 41.167,1.141L41.167,42.435C41.167,42.901 41.019,43.271 40.723,43.546C40.427,43.821 40.046,43.958 39.582,43.958L34.126,43.958C33.703,43.958 33.343,43.81 33.048,43.514C32.751,43.219 32.604,42.859 32.604,42.435L32.604,15.16L23.787,31.906C23.321,32.836 22.624,33.301 21.694,33.301L19.03,33.301C18.142,33.301 17.422,32.836 16.873,31.906L8.056,15.16L8.056,42.435C8.056,42.859 7.918,43.219 7.644,43.514C7.368,43.81 6.999,43.958 6.534,43.958L1.079,43.958C0.655,43.958 0.295,43.81 0,43.514" style="fill:rgb(38,120,122);fill-rule:nonzero;"/>
            </g>
            <g transform="matrix(1,0,0,1,496.079,255.136)">
                <path d="M0,43.514C-0.296,43.219 -0.444,42.859 -0.444,42.435L-0.444,1.141C-0.444,0.677 -0.307,0.296 -0.032,0C0.243,-0.296 0.613,-0.444 1.079,-0.444L29.052,-0.444C29.517,-0.444 29.897,-0.296 30.193,0C30.489,0.296 30.638,0.677 30.638,1.141L30.638,5.391C30.638,5.857 30.489,6.227 30.193,6.501C29.897,6.777 29.517,6.914 29.052,6.914L8.246,6.914L8.246,18.014L27.656,18.014C28.121,18.014 28.501,18.163 28.798,18.458C29.093,18.755 29.242,19.135 29.242,19.6L29.242,23.597C29.242,24.062 29.093,24.432 28.798,24.706C28.501,24.982 28.121,25.118 27.656,25.118L8.246,25.118L8.246,36.6L29.559,36.6C30.024,36.6 30.405,36.738 30.701,37.012C30.996,37.287 31.145,37.657 31.145,38.122L31.145,42.435C31.145,42.901 30.996,43.271 30.701,43.546C30.405,43.821 30.024,43.958 29.559,43.958L1.079,43.958C0.655,43.958 0.295,43.81 0,43.514" style="fill:rgb(38,120,122);fill-rule:nonzero;"/>
            </g>
            <g transform="matrix(1,0,0,1,359.449,317.837)">
                <path d="M0,42.245C-2.707,41.103 -4.758,39.602 -6.153,37.741C-7.549,35.881 -8.289,33.851 -8.373,31.651C-8.373,31.313 -8.247,31.008 -7.993,30.732C-7.739,30.458 -7.422,30.319 -7.041,30.319L-1.269,30.319C-0.804,30.319 -0.423,30.426 -0.127,30.637C0.168,30.849 0.444,31.144 0.698,31.525C1.12,32.963 2.082,34.168 3.583,35.141C5.084,36.114 7.146,36.599 9.768,36.599C12.728,36.599 14.958,36.102 16.46,35.108C17.961,34.116 18.712,32.752 18.712,31.017C18.712,29.876 18.332,28.924 17.57,28.163C16.809,27.402 15.656,26.736 14.113,26.165C12.569,25.594 10.276,24.907 7.231,24.103C2.241,22.92 -1.417,21.355 -3.743,19.409C-6.069,17.465 -7.231,14.674 -7.231,11.036C-7.231,8.585 -6.556,6.396 -5.202,4.472C-3.849,2.548 -1.914,1.036 0.603,-0.064C3.118,-1.163 6.046,-1.713 9.388,-1.713C12.897,-1.713 15.931,-1.1 18.49,0.126C21.048,1.353 22.994,2.886 24.326,4.725C25.658,6.564 26.366,8.394 26.451,10.212C26.451,10.551 26.324,10.857 26.07,11.132C25.816,11.407 25.5,11.544 25.119,11.544L19.093,11.544C18.162,11.544 17.528,11.163 17.19,10.402C16.978,9.05 16.153,7.919 14.716,7.009C13.278,6.099 11.501,5.644 9.388,5.644C7.062,5.644 5.233,6.089 3.901,6.976C2.569,7.865 1.903,9.155 1.903,10.847C1.903,11.988 2.241,12.939 2.917,13.701C3.594,14.462 4.651,15.128 6.089,15.699C7.526,16.269 9.62,16.915 12.369,17.634C16.132,18.479 19.125,19.432 21.345,20.488C23.564,21.545 25.203,22.878 26.26,24.484C27.317,26.092 27.846,28.142 27.846,30.637C27.846,33.387 27.095,35.765 25.594,37.773C24.093,39.782 21.979,41.315 19.251,42.372C16.524,43.429 13.362,43.958 9.768,43.958C5.962,43.958 2.706,43.387 0,42.245" style="fill:rgb(38,120,122);fill-rule:nonzero;"/>
            </g>
            <g transform="matrix(1,0,0,1,404.929,317.202)">
                <path d="M0,43.514C-0.296,43.219 -0.444,42.859 -0.444,42.436L-0.444,28.163L-15.477,1.586C-15.604,1.205 -15.667,0.974 -15.667,0.888C-15.667,0.508 -15.531,0.191 -15.255,-0.063C-14.98,-0.317 -14.674,-0.444 -14.335,-0.444L-8.626,-0.444C-7.824,-0.444 -7.167,-0.042 -6.66,0.761L3.996,19.157L14.716,0.761C14.885,0.466 15.128,0.191 15.446,-0.063C15.763,-0.317 16.153,-0.444 16.619,-0.444L22.328,-0.444C22.708,-0.444 23.026,-0.317 23.279,-0.063C23.533,0.191 23.66,0.508 23.66,0.888C23.66,1.142 23.597,1.375 23.47,1.586L8.5,28.163L8.5,42.436C8.5,42.902 8.351,43.272 8.056,43.546C7.76,43.822 7.379,43.958 6.914,43.958L1.079,43.958C0.655,43.958 0.295,43.811 0,43.514" style="fill:rgb(38,120,122);fill-rule:nonzero;"/>
            </g>
            <g transform="matrix(1,0,0,1,439.183,317.837)">
                <path d="M0,42.245C-2.707,41.103 -4.758,39.602 -6.153,37.741C-7.549,35.881 -8.289,33.851 -8.373,31.651C-8.373,31.313 -8.247,31.008 -7.993,30.732C-7.739,30.458 -7.422,30.319 -7.041,30.319L-1.269,30.319C-0.804,30.319 -0.423,30.426 -0.127,30.637C0.168,30.849 0.444,31.144 0.698,31.525C1.12,32.963 2.082,34.168 3.583,35.141C5.084,36.114 7.146,36.599 9.768,36.599C12.728,36.599 14.958,36.102 16.46,35.108C17.961,34.116 18.712,32.752 18.712,31.017C18.712,29.876 18.332,28.924 17.57,28.163C16.809,27.402 15.656,26.736 14.113,26.165C12.569,25.594 10.276,24.907 7.231,24.103C2.241,22.92 -1.417,21.355 -3.743,19.409C-6.069,17.465 -7.231,14.674 -7.231,11.036C-7.231,8.585 -6.556,6.396 -5.202,4.472C-3.849,2.548 -1.914,1.036 0.603,-0.064C3.118,-1.163 6.046,-1.713 9.388,-1.713C12.897,-1.713 15.931,-1.1 18.49,0.126C21.048,1.353 22.994,2.886 24.326,4.725C25.658,6.564 26.366,8.394 26.451,10.212C26.451,10.551 26.324,10.857 26.07,11.132C25.816,11.407 25.5,11.544 25.119,11.544L19.093,11.544C18.162,11.544 17.528,11.163 17.19,10.402C16.978,9.05 16.153,7.919 14.716,7.009C13.278,6.099 11.501,5.644 9.388,5.644C7.062,5.644 5.233,6.089 3.901,6.976C2.569,7.865 1.903,9.155 1.903,10.847C1.903,11.988 2.241,12.939 2.917,13.701C3.594,14.462 4.651,15.128 6.089,15.699C7.526,16.269 9.62,16.915 12.369,17.634C16.132,18.479 19.125,19.432 21.345,20.488C23.564,21.545 25.203,22.878 26.26,24.484C27.317,26.092 27.846,28.142 27.846,30.637C27.846,33.387 27.095,35.765 25.594,37.773C24.093,39.782 21.979,41.315 19.251,42.372C16.524,43.429 13.362,43.958 9.768,43.958C5.962,43.958 2.706,43.387 0,42.245" style="fill:rgb(38,120,122);fill-rule:nonzero;"/>
            </g>
            <g transform="matrix(1,0,0,1,483.965,317.202)">
                <path d="M0,43.514C-0.296,43.219 -0.444,42.859 -0.444,42.436L-0.444,7.485L-12.179,7.485C-12.602,7.485 -12.962,7.337 -13.257,7.041C-13.554,6.745 -13.701,6.366 -13.701,5.9L-13.701,1.142C-13.701,0.677 -13.564,0.296 -13.289,0C-13.014,-0.296 -12.645,-0.444 -12.179,-0.444L20.235,-0.444C20.7,-0.444 21.08,-0.296 21.376,0C21.672,0.296 21.82,0.677 21.82,1.142L21.82,5.9C21.82,6.366 21.672,6.745 21.376,7.041C21.08,7.337 20.7,7.485 20.235,7.485L8.563,7.485L8.563,42.436C8.563,42.859 8.425,43.219 8.151,43.514C7.875,43.811 7.506,43.958 7.041,43.958L1.078,43.958C0.655,43.958 0.295,43.811 0,43.514" style="fill:rgb(38,120,122);fill-rule:nonzero;"/>
            </g>
            <g transform="matrix(1,0,0,1,512.635,317.202)">
                <path d="M0,43.514C-0.296,43.219 -0.444,42.859 -0.444,42.436L-0.444,1.142C-0.444,0.677 -0.307,0.296 -0.032,0C0.243,-0.296 0.613,-0.444 1.079,-0.444L29.052,-0.444C29.517,-0.444 29.897,-0.296 30.193,0C30.489,0.296 30.638,0.677 30.638,1.142L30.638,5.392C30.638,5.858 30.489,6.228 30.193,6.502C29.897,6.778 29.517,6.914 29.052,6.914L8.246,6.914L8.246,18.015L27.656,18.015C28.121,18.015 28.501,18.163 28.798,18.459C29.093,18.755 29.242,19.136 29.242,19.601L29.242,23.597C29.242,24.063 29.093,24.432 28.798,24.706C28.501,24.983 28.121,25.119 27.656,25.119L8.246,25.119L8.246,36.6L29.559,36.6C30.024,36.6 30.405,36.738 30.701,37.013C30.996,37.288 31.145,37.658 31.145,38.122L31.145,42.436C31.145,42.902 30.996,43.272 30.701,43.546C30.405,43.822 30.024,43.958 29.559,43.958L1.079,43.958C0.655,43.958 0.295,43.811 0,43.514" style="fill:rgb(38,120,122);fill-rule:nonzero;"/>
            </g>
            <g transform="matrix(1,0,0,1,552.152,317.202)">
                <path d="M0,43.514C-0.296,43.219 -0.444,42.859 -0.444,42.436L-0.444,1.142C-0.444,0.677 -0.307,0.296 -0.032,0C0.243,-0.296 0.613,-0.444 1.079,-0.444L6.216,-0.444C7.019,-0.444 7.653,-0.042 8.119,0.761L20.362,23.47L32.604,0.761C33.069,-0.042 33.703,-0.444 34.507,-0.444L39.582,-0.444C40.046,-0.444 40.427,-0.296 40.723,0C41.019,0.296 41.167,0.677 41.167,1.142L41.167,42.436C41.167,42.902 41.019,43.272 40.723,43.546C40.427,43.822 40.046,43.958 39.582,43.958L34.126,43.958C33.703,43.958 33.343,43.811 33.048,43.514C32.751,43.219 32.604,42.859 32.604,42.436L32.604,15.16L23.787,31.907C23.321,32.837 22.624,33.302 21.694,33.302L19.03,33.302C18.142,33.302 17.422,32.837 16.873,31.907L8.056,15.16L8.056,42.436C8.056,42.859 7.918,43.219 7.644,43.514C7.368,43.811 6.999,43.958 6.534,43.958L1.079,43.958C0.655,43.958 0.295,43.811 0,43.514" style="fill:rgb(38,120,122);fill-rule:nonzero;"/>
            </g>
            <g transform="matrix(1,0,0,1,608.924,317.837)">
                <path d="M0,42.245C-2.707,41.103 -4.758,39.602 -6.153,37.741C-7.549,35.881 -8.289,33.851 -8.373,31.651C-8.373,31.313 -8.247,31.008 -7.993,30.732C-7.739,30.458 -7.422,30.319 -7.041,30.319L-1.269,30.319C-0.804,30.319 -0.423,30.426 -0.127,30.637C0.168,30.849 0.444,31.144 0.698,31.525C1.12,32.963 2.082,34.168 3.583,35.141C5.084,36.114 7.146,36.599 9.768,36.599C12.728,36.599 14.958,36.102 16.46,35.108C17.961,34.116 18.712,32.752 18.712,31.017C18.712,29.876 18.332,28.924 17.57,28.163C16.809,27.402 15.656,26.736 14.113,26.165C12.569,25.594 10.276,24.907 7.231,24.103C2.241,22.92 -1.417,21.355 -3.743,19.409C-6.069,17.465 -7.231,14.674 -7.231,11.036C-7.231,8.585 -6.556,6.396 -5.202,4.472C-3.849,2.548 -1.914,1.036 0.603,-0.064C3.118,-1.163 6.046,-1.713 9.388,-1.713C12.897,-1.713 15.931,-1.1 18.49,0.126C21.048,1.353 22.994,2.886 24.326,4.725C25.658,6.564 26.366,8.394 26.451,10.212C26.451,10.551 26.324,10.857 26.07,11.132C25.816,11.407 25.5,11.544 25.119,11.544L19.093,11.544C18.162,11.544 17.528,11.163 17.19,10.402C16.978,9.05 16.153,7.919 14.716,7.009C13.278,6.099 11.501,5.644 9.388,5.644C7.062,5.644 5.233,6.089 3.901,6.976C2.569,7.865 1.903,9.155 1.903,10.847C1.903,11.988 2.241,12.939 2.917,13.701C3.594,14.462 4.651,15.128 6.089,15.699C7.526,16.269 9.62,16.915 12.369,17.634C16.132,18.479 19.125,19.432 21.345,20.488C23.564,21.545 25.203,22.878 26.26,24.484C27.317,26.092 27.846,28.142 27.846,30.637C27.846,33.387 27.095,35.765 25.594,37.773C24.093,39.782 21.979,41.315 19.251,42.372C16.524,43.429 13.362,43.958 9.768,43.958C5.962,43.958 2.706,43.387 0,42.245" style="fill:rgb(38,120,122);fill-rule:nonzero;"/>
            </g>
        </g>
    </g>
</svg>
